<svg width="19" height="19" viewBox="0 0 19 19" fill="none" xmlns="http://www.w3.org/2000/svg">
<path d="M15.675 5.11252L15.675 5.1125C15.7505 5.03699 15.8402 4.97709 15.9388 4.93622C16.0375 4.89535 16.1432 4.87432 16.25 4.87432C16.3568 4.87432 16.4626 4.89535 16.5612 4.93622C16.6599 4.97709 16.7495 5.03699 16.8251 5.1125C16.9006 5.18801 16.9605 5.27766 17.0013 5.37633C17.0422 5.47499 17.0632 5.58074 17.0632 5.68753C17.0632 5.79432 17.0422 5.90007 17.0013 5.99873C16.9605 6.0974 16.9006 6.18704 16.8251 6.26255L16.6483 6.08578L16.8251 6.26256L10.0753 13.0123L15.675 5.11252ZM15.675 5.11252L9.50003 11.2886L3.32528 5.11273L3.14828 5.28928L3.32507 5.11252L3.32519 5.11263C3.24973 5.03701 3.1601 4.97701 3.06143 4.93607C2.96272 4.89511 2.8569 4.87402 2.75003 4.87402C2.64316 4.87402 2.53734 4.89511 2.43862 4.93607C2.34001 4.97699 2.25043 5.03694 2.175 5.1125M15.675 5.11252L2.175 5.1125M2.175 5.1125C2.09944 5.18793 2.03949 5.27751 1.99857 5.37612C1.95761 5.47483 1.93652 5.58066 1.93652 5.68753C1.93652 5.7944 1.95761 5.90022 1.99857 5.99893C2.0395 6.09759 2.09949 6.1872 2.1751 6.26265L2.175 6.26256L2.35178 6.08578L2.17523 6.26278L2.175 5.1125ZM8.925 13.0126C9.00043 13.0881 9.09001 13.1481 9.18862 13.189C9.28734 13.2299 9.39316 13.251 9.50003 13.251C9.6069 13.251 9.71272 13.2299 9.81143 13.189C9.91004 13.1481 9.99963 13.0881 10.0751 13.0126H8.925ZM8.925 13.0126C8.92493 13.0125 8.92485 13.0124 8.92478 13.0123L8.925 13.0126Z" fill="#5E6286" stroke="#5E6286" stroke-width="0.5"/>
</svg>
