<svg width="49" height="35" viewBox="0 0 49 35" fill="none" xmlns="http://www.w3.org/2000/svg">
<path d="M47.5581 5.90381C47.2841 4.88351 46.747 3.95305 46.0005 3.20556C45.2539 2.45808 44.3242 1.91977 43.3042 1.64453C39.5498 0.634766 24.5 0.634766 24.5 0.634766C24.5 0.634766 9.4502 0.634765 5.6958 1.63916C4.6754 1.91351 3.74515 2.45151 2.99847 3.19914C2.25179 3.94676 1.71496 4.87769 1.44189 5.89844C0.4375 9.6582 0.4375 17.5 0.4375 17.5C0.4375 17.5 0.4375 25.3418 1.44189 29.0962C1.99512 31.1694 3.62793 32.8022 5.6958 33.3555C9.4502 34.3652 24.5 34.3652 24.5 34.3652C24.5 34.3652 39.5498 34.3652 43.3042 33.3555C45.3774 32.8022 47.0049 31.1694 47.5581 29.0962C48.5625 25.3418 48.5625 17.5 48.5625 17.5C48.5625 17.5 48.5625 9.6582 47.5581 5.90381ZM19.7197 24.6973V10.3027L32.1807 17.4463L19.7197 24.6973Z" fill="#5E6286"/>
</svg>
