<svg width="45" height="53" viewBox="0 0 45 53" fill="none" xmlns="http://www.w3.org/2000/svg">
<path d="M39.2773 11.7462C38.9292 11.5662 38.5904 11.3689 38.2621 11.155C37.308 10.5242 36.4331 9.78091 35.6564 8.94125C33.7108 6.71604 32.9844 4.45875 32.7185 2.87979H32.7277C32.5054 1.56667 32.5971 0.71875 32.6131 0.71875H23.7558V34.9631C23.7558 35.4215 23.7558 35.8775 23.7375 36.3267C23.7375 36.3817 23.7306 36.4321 23.7283 36.494C23.7283 36.5169 23.7283 36.5444 23.7214 36.5696V36.5902C23.6284 37.8186 23.2349 39.0053 22.5756 40.0459C21.9162 41.0864 21.0112 41.949 19.9402 42.5577C18.8228 43.1934 17.559 43.5267 16.2735 43.5248C12.1485 43.5248 8.80268 40.1606 8.80268 36.0058C8.80268 31.8487 12.1485 28.4846 16.2735 28.4846C17.055 28.4846 17.8318 28.6083 18.5743 28.8512L18.5858 19.8312C16.3308 19.5403 14.04 19.72 11.858 20.359C9.676 20.998 7.65014 22.0824 5.90831 23.5437C4.38173 24.8696 3.09824 26.4516 2.1156 28.2187C1.74206 28.8627 0.330393 31.4546 0.160809 35.6575C0.0531008 38.0408 0.770392 40.5158 1.11185 41.5356V41.5585C1.32498 42.159 2.15914 44.2123 3.51581 45.9425C4.60984 47.3313 5.90246 48.5513 7.35206 49.5633V49.5404L7.37268 49.5633C11.6581 52.4737 16.4133 52.2835 16.4133 52.2835C17.236 52.2492 19.9929 52.2835 23.1233 50.8008C26.5952 49.1554 28.5706 46.7056 28.5706 46.7056C29.8336 45.2415 30.8379 43.573 31.5406 41.7717C32.3427 39.6633 32.6085 37.1379 32.6085 36.1296V17.959C32.7162 18.0231 34.1485 18.9696 34.1485 18.9696C34.1485 18.9696 36.211 20.2919 39.4262 21.1512C41.7316 21.7631 44.8414 21.8937 44.8414 21.8937V13.1006C43.7529 13.2198 41.5414 12.876 39.275 11.7485L39.2773 11.7462Z" fill="#5E6286"/>
</svg>
