<svg width="32" height="32" viewBox="0 0 32 32" fill="none" xmlns="http://www.w3.org/2000/svg">
<path d="M30.375 0.375H1.625C0.933594 0.375 0.375 0.933594 0.375 1.625V30.375C0.375 31.0664 0.933594 31.625 1.625 31.625H30.375C31.0664 31.625 31.625 31.0664 31.625 30.375V1.625C31.625 0.933594 31.0664 0.375 30.375 0.375ZM16.043 16.2383L8.54297 22.5273C8.33984 22.6992 8.03125 22.5547 8.03125 22.2891V19.8398C8.03125 19.75 8.07422 19.6602 8.14453 19.6016L12.4336 16L8.14453 12.3984C8.10863 12.3701 8.07973 12.3338 8.06009 12.2925C8.04044 12.2512 8.03058 12.2059 8.03125 12.1602V9.71094C8.03125 9.44531 8.33984 9.30078 8.54297 9.47266L16.043 15.7578C16.1953 15.8828 16.1953 16.1133 16.043 16.2383V16.2383ZM23.9688 22.2891C23.9688 22.4609 23.8359 22.6016 23.6758 22.6016H16.4492C16.2891 22.6016 16.1562 22.4609 16.1562 22.2891V20.4141C16.1562 20.2422 16.2891 20.1016 16.4492 20.1016H23.6758C23.8359 20.1016 23.9688 20.2422 23.9688 20.4141V22.2891Z" fill="#5E6286"/>
</svg>
