<svg width="53" height="43" viewBox="0 0 53 43" fill="none" xmlns="http://www.w3.org/2000/svg">
<path d="M52.1818 5.31403C50.2683 6.16195 48.2126 6.73487 46.0516 6.99382C48.2814 5.6596 49.9496 3.55968 50.7449 1.08591C48.65 2.33026 46.3572 3.20615 43.9662 3.67549C42.3583 1.95872 40.2286 0.820822 37.9078 0.438453C35.5869 0.0560831 33.2047 0.450639 31.1311 1.56086C29.0575 2.67109 27.4084 4.43486 26.4399 6.57835C25.4714 8.72185 25.2376 11.1251 25.7749 13.4151C21.53 13.2019 17.3774 12.0986 13.5865 10.1767C9.79564 8.25484 6.45123 5.55732 3.77034 2.25924C2.85367 3.84049 2.32659 5.67382 2.32659 7.62632C2.32557 9.38402 2.75842 11.1148 3.58673 12.6651C4.41504 14.2154 5.61321 15.5372 7.07492 16.5134C5.37972 16.4595 3.72193 16.0014 2.23951 15.1774V15.3149C2.23934 17.7801 3.09208 20.1695 4.65305 22.0776C6.21402 23.9856 8.38707 25.2949 10.8035 25.7832C9.23089 26.2088 7.58216 26.2715 5.9818 25.9665C6.66356 28.0877 7.99158 29.9426 9.77993 31.2716C11.5683 32.6005 13.7274 33.3369 15.9551 33.3778C12.1735 36.3464 7.50321 37.9567 2.69555 37.9497C1.84392 37.9499 0.993017 37.9002 0.147217 37.8007C5.02727 40.9384 10.708 42.6036 16.5097 42.5972C36.1493 42.5972 46.8858 26.3309 46.8858 12.2234C46.8858 11.7651 46.8743 11.3022 46.8537 10.8438C48.942 9.33356 50.7447 7.46338 52.1772 5.32091L52.1818 5.31403V5.31403Z" fill="#5E6286"/>
</svg>
