<svg width="51" height="51" viewBox="0 0 51 51" fill="none" xmlns="http://www.w3.org/2000/svg">
<path fill-rule="evenodd" clip-rule="evenodd" d="M15.1074 0.442998C17.7955 0.319248 18.6526 0.291748 25.5001 0.291748C32.3476 0.291748 33.2047 0.32154 35.8905 0.442998C38.5763 0.564456 40.4097 0.992998 42.0138 1.61404C43.6936 2.24883 45.2176 3.24112 46.478 4.52446C47.7613 5.78258 48.7513 7.30425 49.3838 8.98633C50.0072 10.5905 50.4334 12.4238 50.5572 15.1051C50.6809 17.7978 50.7084 18.6549 50.7084 25.5001C50.7084 32.3476 50.6786 33.2047 50.5572 35.8928C50.4357 38.574 50.0072 40.4074 49.3838 42.0115C48.7513 43.6938 47.7597 45.218 46.478 46.478C45.2176 47.7613 43.6936 48.7513 42.0138 49.3838C40.4097 50.0072 38.5763 50.4334 35.8951 50.5572C33.2047 50.6809 32.3476 50.7084 25.5001 50.7084C18.6526 50.7084 17.7955 50.6786 15.1074 50.5572C12.4261 50.4357 10.5928 50.0072 8.98862 49.3838C7.30636 48.7513 5.78217 47.7596 4.52216 46.478C3.2397 45.2191 2.24726 43.6957 1.61404 42.0138C0.992998 40.4097 0.566748 38.5763 0.442998 35.8951C0.319248 33.2024 0.291748 32.3453 0.291748 25.5001C0.291748 18.6526 0.32154 17.7955 0.442998 15.1097C0.564456 12.4238 0.992998 10.5905 1.61404 8.98633C2.2482 7.30444 3.2414 5.78101 4.52446 4.52216C5.78267 3.23998 7.30533 2.24756 8.98633 1.61404C10.5905 0.992998 12.4238 0.566748 15.1051 0.442998H15.1074ZM35.6865 4.9805C33.0282 4.85904 32.2307 4.83383 25.5001 4.83383C18.7695 4.83383 17.972 4.85904 15.3136 4.9805C12.8547 5.09279 11.5209 5.503 10.6317 5.84904C9.45612 6.30737 8.61508 6.8505 7.73279 7.73279C6.89643 8.54645 6.25279 9.53698 5.84904 10.6317C5.503 11.5209 5.09279 12.8547 4.9805 15.3136C4.85904 17.972 4.83383 18.7695 4.83383 25.5001C4.83383 32.2307 4.85904 33.0282 4.9805 35.6865C5.09279 38.1455 5.503 39.4793 5.84904 40.3684C6.25237 41.4615 6.89633 42.4538 7.73279 43.2674C8.54633 44.1038 9.53862 44.7478 10.6317 45.1511C11.5209 45.4972 12.8547 45.9074 15.3136 46.0197C17.972 46.1411 18.7672 46.1663 25.5001 46.1663C32.233 46.1663 33.0282 46.1411 35.6865 46.0197C38.1455 45.9074 39.4793 45.4972 40.3684 45.1511C41.544 44.6928 42.3851 44.1497 43.2674 43.2674C44.1038 42.4538 44.7478 41.4615 45.1511 40.3684C45.4972 39.4793 45.9074 38.1455 46.0197 35.6865C46.1411 33.0282 46.1663 32.2307 46.1663 25.5001C46.1663 18.7695 46.1411 17.972 46.0197 15.3136C45.9074 12.8547 45.4972 11.5209 45.1511 10.6317C44.6928 9.45612 44.1497 8.61508 43.2674 7.73279C42.4537 6.8965 41.4632 6.25286 40.3684 5.84904C39.4793 5.503 38.1455 5.09279 35.6865 4.9805V4.9805ZM22.2803 33.2711C24.0785 34.0197 26.0807 34.1207 27.9451 33.5569C29.8095 32.9932 31.4204 31.7997 32.5025 30.1802C33.5847 28.5608 34.071 26.6158 33.8785 24.6776C33.686 22.7394 32.8266 20.9281 31.447 19.5532C30.5675 18.6743 29.5041 18.0013 28.3333 17.5827C27.1626 17.1641 25.9136 17.0103 24.6762 17.1323C23.4389 17.2544 22.244 17.6492 21.1775 18.2885C20.1111 18.9278 19.1997 19.7955 18.5089 20.8293C17.8181 21.8631 17.3651 23.0372 17.1825 24.2671C16.9999 25.4969 17.0923 26.752 17.453 27.9419C17.8137 29.1318 18.4337 30.2269 19.2684 31.1484C20.1031 32.0699 21.1318 32.7949 22.2803 33.2711ZM16.338 16.338C17.5412 15.1348 18.9696 14.1804 20.5416 13.5292C22.1136 12.8781 23.7985 12.5429 25.5001 12.5429C27.2016 12.5429 28.8865 12.8781 30.4586 13.5292C32.0306 14.1804 33.459 15.1348 34.6622 16.338C35.8653 17.5412 36.8198 18.9696 37.4709 20.5416C38.1221 22.1136 38.4572 23.7985 38.4572 25.5001C38.4572 27.2016 38.1221 28.8865 37.4709 30.4586C36.8198 32.0306 35.8653 33.459 34.6622 34.6622C32.2322 37.0921 28.9365 38.4572 25.5001 38.4572C22.0636 38.4572 18.7679 37.0921 16.338 34.6622C13.9081 32.2322 12.5429 28.9365 12.5429 25.5001C12.5429 22.0636 13.9081 18.7679 16.338 16.338V16.338ZM41.3309 14.4726C41.6291 14.1913 41.8678 13.8531 42.0329 13.4779C42.198 13.1028 42.2861 12.6983 42.2921 12.2885C42.2981 11.8786 42.2217 11.4718 42.0676 11.0919C41.9136 10.7121 41.6848 10.3671 41.395 10.0773C41.1052 9.78742 40.7601 9.55869 40.3803 9.4046C40.0005 9.25051 39.5936 9.17419 39.1838 9.18017C38.7739 9.18614 38.3695 9.27429 37.9943 9.43939C37.6191 9.60448 37.2809 9.84318 36.9997 10.1413C36.4527 10.7212 36.1532 11.4914 36.1648 12.2885C36.1764 13.0855 36.4982 13.8467 37.0619 14.4103C37.6256 14.974 38.3867 15.2958 39.1838 15.3074C39.9808 15.3191 40.7511 15.0196 41.3309 14.4726V14.4726Z" fill="#5E6286"/>
</svg>
