<svg width="30" height="36" viewBox="0 0 30 36" fill="none" xmlns="http://www.w3.org/2000/svg">
<path d="M26.9421 10.696V23.6491C25.9302 23.0854 24.7538 22.8596 23.5955 23.0067C22.4371 23.1539 21.3614 23.6658 20.5352 24.4631C19.709 25.2603 19.1785 26.2984 19.0261 27.4163C18.8736 28.5341 19.1076 29.6693 19.6918 30.6457C20.276 31.6221 21.1777 32.3853 22.2572 32.8167C23.3367 33.2482 24.5335 33.3238 25.6621 33.032C26.7906 32.7402 27.7879 32.0971 28.4991 31.2026C29.2104 30.3081 29.5959 29.2121 29.5959 28.0846V2.286C29.5963 1.95727 29.5147 1.63328 29.358 1.34138C29.2013 1.04948 28.9742 0.798247 28.6957 0.608893C28.4173 0.419539 28.0957 0.297626 27.7581 0.253448C27.4206 0.209271 27.077 0.244127 26.7563 0.355072L9.77197 6.20931C9.36023 6.35177 9.00414 6.61347 8.75238 6.95864C8.50062 7.3038 8.36549 7.71559 8.36546 8.13768V26.2075C7.3537 25.6438 6.17748 25.418 5.01919 25.565C3.8609 25.7121 2.78526 26.2239 1.95906 27.021C1.13287 27.8181 0.602287 28.8559 0.449591 29.9737C0.296894 31.0914 0.530616 32.2265 1.11451 33.2029C1.69841 34.1794 2.59986 34.9427 3.67907 35.3745C4.75829 35.8062 5.95497 35.8823 7.08354 35.5909C8.21212 35.2995 9.20953 34.6569 9.92112 33.7627C10.6327 32.8686 11.0187 31.7729 11.0193 30.6455V16.1841L26.9421 10.6986V10.696Z" fill="#5E6286"/>
</svg>
