<svg width="35" height="33" viewBox="0 0 35 33" fill="none" xmlns="http://www.w3.org/2000/svg">
<path d="M12.6651 4.5251L8.05672 17.5001H17.2734L12.6651 4.5251ZM18.6234 21.3034L18.1601 20.0001H7.16839L5.09506 25.8401C4.98411 26.1526 4.75356 26.4083 4.45412 26.5508C4.15469 26.6933 3.8109 26.711 3.49839 26.6001C3.18588 26.4891 2.93024 26.2586 2.78771 25.9592C2.64518 25.6597 2.62744 25.3159 2.73839 25.0034L11.2684 0.986768C11.7351 -0.329899 13.5951 -0.329899 14.0617 0.986768L20.5817 19.3451L18.6234 21.3034V21.3034ZM4.31006 28.9568C3.43506 29.1518 2.37339 28.7518 1.59172 28.3234C1.24339 28.1351 0.780057 28.4434 0.945057 28.8034C1.34839 29.6851 2.16339 30.6918 3.79506 30.8951C5.42839 31.0968 6.73839 30.3168 8.04506 29.5368C9.01672 28.9568 9.98672 28.3768 11.0884 28.2051C11.2301 28.1834 11.3284 28.3518 11.2634 28.4818C10.8601 29.2884 10.6701 30.7651 11.6267 31.5118C13.0401 32.6151 17.0217 31.9984 18.0067 31.6584C18.09 31.6498 18.1724 31.6347 18.2534 31.6134L21.3034 30.8518C22.0908 30.655 22.8098 30.2476 23.3834 29.6734L33.2217 19.8368C33.9178 19.1185 34.3034 18.1553 34.2955 17.1551C34.2875 16.155 33.8866 15.198 33.1793 14.4909C32.4719 13.7838 31.5149 13.3831 30.5147 13.3755C29.5145 13.3679 28.5515 13.7538 27.8334 14.4501L17.9967 24.2868C17.4229 24.86 17.0156 25.5784 16.8184 26.3651L16.1051 29.2184C15.5151 29.5018 14.9217 29.5551 14.2184 29.3934C14.0084 29.3434 13.9184 29.1018 14.0067 28.9051C14.7234 27.3018 13.6901 25.9451 12.2901 25.3834C10.6984 24.7418 8.58006 26.2418 6.80339 27.4968C5.81672 28.1968 4.93672 28.8184 4.31006 28.9568V28.9568Z" fill="#5E6286"/>
</svg>
