<svg width="24" height="30" viewBox="0 0 24 30" fill="none" xmlns="http://www.w3.org/2000/svg">
<path d="M12 0C10.3424 0 8.75269 0.65848 7.58058 1.83058C6.40848 3.00269 5.75 4.5924 5.75 6.25V15C5.75 16.6576 6.40848 18.2473 7.58058 19.4194C8.75269 20.5915 10.3424 21.25 12 21.25C13.6576 21.25 15.2473 20.5915 16.4194 19.4194C17.5915 18.2473 18.25 16.6576 18.25 15V6.25C18.25 4.5924 17.5915 3.00269 16.4194 1.83058C15.2473 0.65848 13.6576 0 12 0V0ZM2 13.75C2.33152 13.75 2.64946 13.8817 2.88388 14.1161C3.1183 14.3505 3.25 14.6685 3.25 15C3.25 17.3206 4.17187 19.5462 5.81282 21.1872C7.45376 22.8281 9.67936 23.75 12 23.75C14.3206 23.75 16.5462 22.8281 18.1872 21.1872C19.8281 19.5462 20.75 17.3206 20.75 15C20.75 14.6685 20.8817 14.3505 21.1161 14.1161C21.3505 13.8817 21.6685 13.75 22 13.75C22.3315 13.75 22.6495 13.8817 22.8839 14.1161C23.1183 14.3505 23.25 14.6685 23.25 15C23.2505 17.7676 22.2309 20.4383 20.386 22.5014C18.5411 24.5644 16.0005 25.875 13.25 26.1825V28.75C13.25 29.0815 13.1183 29.3995 12.8839 29.6339C12.6495 29.8683 12.3315 30 12 30C11.6685 30 11.3505 29.8683 11.1161 29.6339C10.8817 29.3995 10.75 29.0815 10.75 28.75V26.1825C7.99952 25.875 5.45891 24.5644 3.61402 22.5014C1.76914 20.4383 0.749469 17.7676 0.75 15C0.75 14.6685 0.881697 14.3505 1.11612 14.1161C1.35054 13.8817 1.66848 13.75 2 13.75Z" fill="#5E6286"/>
</svg>
