<svg width="66" height="61" viewBox="0 0 66 61" fill="none" xmlns="http://www.w3.org/2000/svg">
<path fill-rule="evenodd" clip-rule="evenodd" d="M49.441 4.16029L49.4408 4.15975L49.4408 4.15965C49.4409 4.15986 49.4409 4.16008 49.441 4.16029ZM49.7535 4.90001L42.0406 21.9558C43.8893 21.6165 46.2656 21.3817 49.3047 21.3817C52.5806 21.3817 55.0864 21.6545 56.9914 22.037L49.7535 4.90001ZM58.7243 27.0911C58.5103 26.9984 58.2445 26.8954 57.9198 26.7888C56.45 26.3063 53.7848 25.7541 49.3047 25.7541C44.8245 25.7541 42.1594 26.3063 40.6895 26.7888C40.3649 26.8954 40.099 26.9984 39.885 27.0911C39.9563 33.2672 40.5836 36.9286 41.891 39.0748C43.063 40.9985 45.015 42.0279 49.3047 42.0279C53.5944 42.0279 55.5464 40.9985 56.7183 39.0748C58.0258 36.9286 58.653 33.2672 58.7243 27.0911ZM36.1324 24.274C36.1265 24.2796 36.1208 24.285 36.1153 24.2902C36.1106 24.2947 36.106 24.2991 36.1016 24.3034L36.0951 24.3097L36.092 24.3128C36.0916 24.3131 36.0913 24.3135 36.1072 24.3298L36.1059 24.3326L36.0889 24.3158C36.0706 24.3339 36.0526 24.3522 36.035 24.3708C35.0994 23.9177 34.0624 23.6756 33 23.6756C31.9375 23.6756 30.9005 23.9177 29.9648 24.3709C29.9472 24.3523 29.9293 24.334 29.911 24.3159L29.7388 24.4855C29.7373 24.4863 29.7358 24.4871 29.7343 24.4879C29.9094 24.3143 29.9086 24.3136 29.9079 24.3129L29.9047 24.3098L29.8982 24.3035C29.8938 24.2992 29.8893 24.2948 29.8845 24.2903C29.8751 24.2813 29.865 24.2718 29.8542 24.2618C29.8327 24.2419 29.8085 24.2201 29.7816 24.1967C29.7277 24.1499 29.6628 24.0965 29.5859 24.0375C29.4319 23.9196 29.2307 23.7805 28.9739 23.6287C28.4599 23.325 27.7284 22.9738 26.7141 22.6408C24.6901 21.9764 21.5321 21.3817 16.6952 21.3817C11.8584 21.3817 8.70041 21.9764 6.67633 22.6408C5.66207 22.9738 4.93049 23.325 4.41653 23.6287C4.38983 23.6445 4.36373 23.6601 4.33822 23.6756H2.71972C1.4938 23.6756 0.5 24.6544 0.5 25.8618C0.5 27.0692 1.4938 28.0479 2.71972 28.0479H2.85014C2.85267 28.1727 2.85544 28.2969 2.85846 28.4204L2.85844 57.9388C2.85844 59.1462 3.85224 60.125 5.07816 60.125C6.30408 60.125 7.29789 59.1462 7.29789 57.9388L7.2979 43.5474C9.6202 45.6461 12.813 46.4002 16.6952 46.4002C21.7226 46.4002 25.5937 45.1357 27.9156 41.3243C29.4249 38.8469 30.1307 35.4807 30.4087 31.2476C30.5071 31.0005 30.5611 30.7314 30.5611 30.45C30.5611 29.813 30.8181 29.2021 31.2755 28.7515C31.733 28.301 32.3533 28.0479 33 28.0479C33.6467 28.0479 34.267 28.301 34.7245 28.7515C35.1817 29.2019 35.4387 29.8127 35.4387 30.45C35.4387 30.7314 35.4927 31.0005 35.591 31.2476C35.8691 35.4807 36.575 38.8469 38.0843 41.3243C40.4062 45.1357 44.2774 46.4002 49.3047 46.4002C54.332 46.4002 58.2031 45.1357 60.5251 41.3243C62.3923 38.2594 63.0299 33.8342 63.1489 28.0901C63.1598 28.0762 63.1705 28.0621 63.181 28.0479H63.2803C64.5062 28.0479 65.5 27.0692 65.5 25.8618C65.5 24.6544 64.5062 23.6756 63.2803 23.6756H62.4917L53.5398 2.48057C52.1618 -0.782576 47.4891 -0.839665 46.0293 2.38872C46.0292 2.38874 46.0292 2.38877 46.0292 2.38879L36.1324 24.274ZM26.1148 27.0911C25.9008 26.9984 25.635 26.8954 25.3103 26.7888C23.8406 26.3064 21.1754 25.7541 16.6952 25.7541C12.2151 25.7541 9.5499 26.3063 8.08011 26.7888C7.76663 26.8917 7.508 26.9913 7.29791 27.0815L7.29791 28.3166C7.4354 33.7582 8.06308 37.0746 9.28162 39.0748C10.4536 40.9985 12.4055 42.0279 16.6952 42.0279C20.985 42.0279 22.9369 40.9985 24.1088 39.0748C25.4162 36.9286 26.0434 33.2673 26.1148 27.0911Z" fill="#5E6286"/>
</svg>
